<?xml version="1.0" encoding="UTF-8" standalone="no"?>
<svg
   xmlns:dc="http://purl.org/dc/elements/1.1/"
   xmlns:cc="http://creativecommons.org/ns#"
   xmlns:rdf="http://www.w3.org/1999/02/22-rdf-syntax-ns#"
   xmlns:svg="http://www.w3.org/2000/svg"
   xmlns="http://www.w3.org/2000/svg"
   xmlns:xlink="http://www.w3.org/1999/xlink"
   xmlns:sodipodi="http://sodipodi.sourceforge.net/DTD/sodipodi-0.dtd"
   xmlns:inkscape="http://www.inkscape.org/namespaces/inkscape"
   width="50mm"
   height="50mm"
   viewBox="0 0 50 50"
   version="1.1"
   id="svg8"
   sodipodi:docname="expert.svg"
   inkscape:version="1.0.2 (e86c8708, 2021-01-15)">
  <defs
     id="defs2">
    <g
       id="g408">
      <symbol
         overflow="visible"
         id="symbol827">
        <path
           style="stroke:none;"
           d=""
           id="path9016" />
      </symbol>
      <symbol
         overflow="visible"
         id="symbol4353">
        <path
           style="stroke:none;"
           d="M 4.609375 -3.375 C 4.515625 -4 4.109375 -4.5625 3.328125 -4.5625 C 2.71875 -4.5625 2.078125 -4.390625 1.296875 -3.625 C 0.46875 -2.796875 0.40625 -1.859375 0.40625 -1.5625 C 0.40625 -0.9375 0.84375 0.21875 2.234375 0.21875 C 4.609375 0.21875 5.640625 -3.125 5.640625 -4.5625 C 5.640625 -6.140625 4.71875 -7.140625 3.484375 -7.140625 C 2.046875 -7.140625 1.578125 -5.84375 1.578125 -5.5625 C 1.578125 -5.421875 1.671875 -5.21875 1.96875 -5.21875 C 2.296875 -5.21875 2.5 -5.515625 2.5 -5.734375 C 2.5 -6.09375 2.1875 -6.09375 2.03125 -6.09375 C 2.46875 -6.828125 3.1875 -6.890625 3.46875 -6.890625 C 4.203125 -6.890625 4.890625 -6.375 4.890625 -5.078125 C 4.890625 -4.6875 4.828125 -4.1875 4.625 -3.375 Z M 2.265625 -0.0625 C 1.171875 -0.0625 1.171875 -1.09375 1.171875 -1.1875 C 1.171875 -1.453125 1.421875 -2.84375 1.828125 -3.453125 C 2.21875 -4.015625 2.71875 -4.34375 3.328125 -4.34375 C 4.421875 -4.34375 4.4375 -3.21875 4.4375 -3.015625 C 4.4375 -2.296875 3.796875 -0.0625 2.265625 -0.0625 Z M 2.265625 -0.0625 "
           id="path2825" />
      </symbol>
      <symbol
         overflow="visible"
         id="symbol2885">
        <path
           style="stroke:none;"
           d="M 4.25 -6.046875 C 4.328125 -6.328125 4.359375 -6.390625 4.484375 -6.421875 C 4.578125 -6.4375 4.90625 -6.4375 5.109375 -6.4375 C 6.125 -6.4375 6.5625 -6.40625 6.5625 -5.625 C 6.5625 -5.46875 6.53125 -5.078125 6.484375 -4.828125 C 6.484375 -4.78125 6.453125 -4.671875 6.453125 -4.640625 C 6.453125 -4.578125 6.484375 -4.5 6.578125 -4.5 C 6.6875 -4.5 6.703125 -4.578125 6.734375 -4.734375 L 7 -6.46875 C 7.015625 -6.515625 7.015625 -6.609375 7.015625 -6.640625 C 7.015625 -6.75 6.921875 -6.75 6.75 -6.75 L 1.21875 -6.75 C 0.984375 -6.75 0.96875 -6.734375 0.890625 -6.546875 L 0.296875 -4.796875 C 0.296875 -4.78125 0.234375 -4.640625 0.234375 -4.609375 C 0.234375 -4.5625 0.296875 -4.5 0.359375 -4.5 C 0.453125 -4.5 0.46875 -4.5625 0.53125 -4.71875 C 1.0625 -6.265625 1.328125 -6.4375 2.796875 -6.4375 L 3.1875 -6.4375 C 3.46875 -6.4375 3.46875 -6.40625 3.46875 -6.3125 C 3.46875 -6.265625 3.4375 -6.140625 3.421875 -6.109375 L 2.09375 -0.78125 C 2 -0.421875 1.96875 -0.3125 0.90625 -0.3125 C 0.546875 -0.3125 0.484375 -0.3125 0.484375 -0.125 C 0.484375 0 0.59375 0 0.65625 0 C 0.921875 0 1.203125 -0.015625 1.46875 -0.015625 C 1.75 -0.015625 2.046875 -0.03125 2.328125 -0.03125 C 2.609375 -0.03125 2.875 -0.015625 3.15625 -0.015625 C 3.4375 -0.015625 3.734375 0 4.015625 0 C 4.109375 0 4.234375 0 4.234375 -0.203125 C 4.234375 -0.3125 4.15625 -0.3125 3.890625 -0.3125 C 3.65625 -0.3125 3.515625 -0.3125 3.265625 -0.328125 C 2.96875 -0.359375 2.890625 -0.390625 2.890625 -0.546875 C 2.890625 -0.5625 2.890625 -0.609375 2.9375 -0.75 Z M 4.25 -6.046875 "
           id="path4212" />
      </symbol>
      <symbol
         overflow="visible"
         id="symbol6341">
        <path
           style="stroke:none;"
           d="M 2.046875 -3.984375 L 2.984375 -3.984375 C 3.1875 -3.984375 3.296875 -3.984375 3.296875 -4.1875 C 3.296875 -4.296875 3.1875 -4.296875 3.015625 -4.296875 L 2.140625 -4.296875 C 2.5 -5.71875 2.546875 -5.90625 2.546875 -5.96875 C 2.546875 -6.140625 2.421875 -6.234375 2.25 -6.234375 C 2.21875 -6.234375 1.9375 -6.234375 1.859375 -5.875 L 1.46875 -4.296875 L 0.53125 -4.296875 C 0.328125 -4.296875 0.234375 -4.296875 0.234375 -4.109375 C 0.234375 -3.984375 0.3125 -3.984375 0.515625 -3.984375 L 1.390625 -3.984375 C 0.671875 -1.15625 0.625 -0.984375 0.625 -0.8125 C 0.625 -0.265625 1 0.109375 1.546875 0.109375 C 2.5625 0.109375 3.125 -1.34375 3.125 -1.421875 C 3.125 -1.53125 3.046875 -1.53125 3.015625 -1.53125 C 2.921875 -1.53125 2.90625 -1.5 2.859375 -1.390625 C 2.4375 -0.34375 1.90625 -0.109375 1.5625 -0.109375 C 1.359375 -0.109375 1.25 -0.234375 1.25 -0.5625 C 1.25 -0.8125 1.28125 -0.875 1.3125 -1.046875 Z M 2.046875 -3.984375 "
           id="path8626" />
      </symbol>
      <symbol
         overflow="visible"
         id="symbol6219">
        <path
           style="stroke:none;"
           d="M 3.328125 -3.015625 C 3.390625 -3.265625 3.625 -4.1875 4.3125 -4.1875 C 4.359375 -4.1875 4.609375 -4.1875 4.8125 -4.0625 C 4.53125 -4 4.34375 -3.765625 4.34375 -3.515625 C 4.34375 -3.359375 4.453125 -3.171875 4.71875 -3.171875 C 4.9375 -3.171875 5.25 -3.34375 5.25 -3.75 C 5.25 -4.265625 4.671875 -4.40625 4.328125 -4.40625 C 3.75 -4.40625 3.40625 -3.875 3.28125 -3.65625 C 3.03125 -4.3125 2.5 -4.40625 2.203125 -4.40625 C 1.171875 -4.40625 0.59375 -3.125 0.59375 -2.875 C 0.59375 -2.765625 0.703125 -2.765625 0.71875 -2.765625 C 0.796875 -2.765625 0.828125 -2.796875 0.84375 -2.875 C 1.1875 -3.9375 1.84375 -4.1875 2.1875 -4.1875 C 2.375 -4.1875 2.71875 -4.09375 2.71875 -3.515625 C 2.71875 -3.203125 2.546875 -2.546875 2.1875 -1.140625 C 2.03125 -0.53125 1.671875 -0.109375 1.234375 -0.109375 C 1.171875 -0.109375 0.953125 -0.109375 0.734375 -0.234375 C 0.984375 -0.296875 1.203125 -0.5 1.203125 -0.78125 C 1.203125 -1.046875 0.984375 -1.125 0.84375 -1.125 C 0.53125 -1.125 0.296875 -0.875 0.296875 -0.546875 C 0.296875 -0.09375 0.78125 0.109375 1.21875 0.109375 C 1.890625 0.109375 2.25 -0.59375 2.265625 -0.640625 C 2.390625 -0.28125 2.75 0.109375 3.34375 0.109375 C 4.375 0.109375 4.9375 -1.171875 4.9375 -1.421875 C 4.9375 -1.53125 4.859375 -1.53125 4.828125 -1.53125 C 4.734375 -1.53125 4.71875 -1.484375 4.6875 -1.421875 C 4.359375 -0.34375 3.6875 -0.109375 3.375 -0.109375 C 2.984375 -0.109375 2.828125 -0.421875 2.828125 -0.765625 C 2.828125 -0.984375 2.875 -1.203125 2.984375 -1.640625 Z M 3.328125 -3.015625 "
           id="path9650" />
      </symbol>
      <symbol
         overflow="visible"
         id="symbol2819">
        <path
           style="stroke:none;"
           d=""
           id="path5933" />
      </symbol>
      <symbol
         overflow="visible"
         id="symbol6093">
        <path
           style="stroke:none;"
           d="M 6.84375 -3.265625 C 7 -3.265625 7.1875 -3.265625 7.1875 -3.453125 C 7.1875 -3.65625 7 -3.65625 6.859375 -3.65625 L 0.890625 -3.65625 C 0.75 -3.65625 0.5625 -3.65625 0.5625 -3.453125 C 0.5625 -3.265625 0.75 -3.265625 0.890625 -3.265625 Z M 6.859375 -1.328125 C 7 -1.328125 7.1875 -1.328125 7.1875 -1.53125 C 7.1875 -1.71875 7 -1.71875 6.84375 -1.71875 L 0.890625 -1.71875 C 0.75 -1.71875 0.5625 -1.71875 0.5625 -1.53125 C 0.5625 -1.328125 0.75 -1.328125 0.890625 -1.328125 Z M 6.859375 -1.328125 "
           id="path4156" />
      </symbol>
      <symbol
         overflow="visible"
         id="symbol6861">
        <path
           style="stroke:none;"
           d=""
           id="path8965" />
      </symbol>
      <symbol
         overflow="visible"
         id="symbol1512">
        <path
           style="stroke:none;"
           d="M 3.515625 -1.265625 L 3.28125 -1.265625 C 3.265625 -1.109375 3.1875 -0.703125 3.09375 -0.640625 C 3.046875 -0.59375 2.515625 -0.59375 2.40625 -0.59375 L 1.125 -0.59375 C 1.859375 -1.234375 2.109375 -1.4375 2.515625 -1.765625 C 3.03125 -2.171875 3.515625 -2.609375 3.515625 -3.265625 C 3.515625 -4.109375 2.78125 -4.625 1.890625 -4.625 C 1.03125 -4.625 0.4375 -4.015625 0.4375 -3.375 C 0.4375 -3.03125 0.734375 -2.984375 0.8125 -2.984375 C 0.96875 -2.984375 1.171875 -3.109375 1.171875 -3.359375 C 1.171875 -3.484375 1.125 -3.734375 0.765625 -3.734375 C 0.984375 -4.21875 1.453125 -4.375 1.78125 -4.375 C 2.484375 -4.375 2.84375 -3.828125 2.84375 -3.265625 C 2.84375 -2.65625 2.40625 -2.1875 2.1875 -1.9375 L 0.515625 -0.265625 C 0.4375 -0.203125 0.4375 -0.1875 0.4375 0 L 3.3125 0 Z M 3.515625 -1.265625 "
           id="path7092" />
      </symbol>
    </g>
  </defs>
  <sodipodi:namedview
     id="base"
     pagecolor="#ffffff"
     bordercolor="#666666"
     borderopacity="1.0"
     inkscape:pageopacity="0.0"
     inkscape:pageshadow="2"
     inkscape:zoom="1.07"
     inkscape:cx="81.594854"
     inkscape:cy="128.52666"
     inkscape:document-units="mm"
     inkscape:current-layer="layer1"
     inkscape:document-rotation="0"
     showgrid="false"
     inkscape:window-width="1252"
     inkscape:window-height="1014"
     inkscape:window-x="0"
     inkscape:window-y="25"
     inkscape:window-maximized="0" />
  <metadata
     id="metadata5">
    <rdf:RDF>
      <cc:Work
         rdf:about="">
        <dc:format>image/svg+xml</dc:format>
        <dc:type
           rdf:resource="http://purl.org/dc/dcmitype/StillImage" />
        <dc:title></dc:title>
      </cc:Work>
    </rdf:RDF>
  </metadata>
  <g
     inkscape:label="Layer 1"
     inkscape:groupmode="layer"
     id="layer1">
    <g
       id="g843"
       transform="matrix(1.7184514,0,0,1.7220123,-19.592943,-15.167158)"
       style="stroke-width:0.581317">
      <g
         id="g838"
         transform="matrix(2.2079208,0,0,2.2903225,-28.048308,-13.399074)"
         style="stroke-width:0.258508">
        <rect
           style="fill:#d7ff00;fill-opacity:1;stroke:#0b09de;stroke-width:0.103403;stroke-miterlimit:4;stroke-dasharray:none;stroke-opacity:1"
           id="rect10"
           width="12.37172"
           height="11.391783"
           x="18.25135"
           y="10.289351"
           ry="2.0749285" />
      </g>
      <ellipse
         style="fill:#c83737;fill-opacity:1;stroke:#f0eede;stroke-width:0.232527;stroke-miterlimit:4;stroke-dasharray:none;stroke-opacity:1"
         id="path835"
         cx="26.397083"
         cy="22.783564"
         rx="4.2259836"
         ry="3.9197528" />
    </g>
    <g
       inkscape:label=""
       transform="matrix(0.55616819,0,0,0.49496369,-39.185666,-31.358013)"
       id="g896"
       style="stroke-width:1.90594">
      <g
         id="g7205"
         style="stroke-width:1.90594">
        <g
           style="fill:#000000;fill-opacity:1;stroke-width:1.90594"
           id="g4674">
          <use
             xlink:href="#symbol4353"
             x="93.121002"
             y="80.110001"
             id="use40"
             width="100%"
             height="100%"
             style="stroke-width:1.90594" />
        </g>
        <g
           style="fill:#000000;fill-opacity:1;stroke-width:1.90594"
           id="g6103">
          <use
             xlink:href="#symbol2885"
             x="98.968048"
             y="80.110001"
             id="use2676"
             width="100%"
             height="100%"
             style="stroke-width:1.90594" />
        </g>
        <path
           style="fill:none;stroke:#000000;stroke-width:0.758566;stroke-linecap:butt;stroke-linejoin:miter;stroke-miterlimit:10;stroke-opacity:1"
           d="M 9.375e-5,-3.75e-4 H 13.046969"
           transform="matrix(1,0,0,-1,93.121,84.359)"
           id="path5530" />
        <g
           style="fill:#000000;fill-opacity:1;stroke-width:1.90594"
           id="g9545">
          <use
             xlink:href="#symbol4353"
             x="94.925003"
             y="93.683998"
             id="use2461"
             width="100%"
             height="100%"
             style="stroke-width:1.90594" />
        </g>
        <g
           style="fill:#000000;fill-opacity:1;stroke-width:1.90594"
           id="g609">
          <use
             xlink:href="#symbol6341"
             x="100.77205"
             y="93.683998"
             id="use2481"
             width="100%"
             height="100%"
             style="stroke-width:1.90594" />
        </g>
        <g
           style="fill:#000000;fill-opacity:1;stroke-width:1.90594"
           id="g4784">
          <use
             xlink:href="#symbol6093"
             x="110.132"
             y="86.849998"
             id="use6826"
             width="100%"
             height="100%"
             style="stroke-width:1.90594" />
        </g>
        <g
           style="fill:#000000;fill-opacity:1;stroke-width:1.90594"
           id="g209">
          <use
             xlink:href="#symbol4353"
             x="121.844"
             y="80.110001"
             id="use6562"
             width="100%"
             height="100%"
             style="stroke-width:1.90594" />
        </g>
        <g
           style="fill:#000000;fill-opacity:1;stroke-width:1.90594"
           id="g6773">
          <use
             xlink:href="#symbol1512"
             x="127.686"
             y="76.495003"
             id="use4383"
             width="100%"
             height="100%"
             style="stroke-width:1.90594" />
        </g>
        <g
           style="fill:#000000;fill-opacity:1;stroke-width:1.90594"
           id="g2292">
          <use
             xlink:href="#symbol2885"
             x="132.15601"
             y="80.110001"
             id="use9723"
             width="100%"
             height="100%"
             style="stroke-width:1.90594" />
        </g>
        <path
           style="fill:none;stroke:#000000;stroke-width:0.758566;stroke-linecap:butt;stroke-linejoin:miter;stroke-miterlimit:10;stroke-opacity:1"
           d="M -2.5e-4,-3.75e-4 H 17.519281"
           transform="matrix(1,0,0,-1,121.844,84.359)"
           id="path3808" />
        <g
           style="fill:#000000;fill-opacity:1;stroke-width:1.90594"
           id="g8025">
          <use
             xlink:href="#symbol4353"
             x="122.599"
             y="93.683998"
             id="use8599"
             width="100%"
             height="100%"
             style="stroke-width:1.90594" />
        </g>
        <g
           style="fill:#000000;fill-opacity:1;stroke-width:1.90594"
           id="g9487">
          <use
             xlink:href="#symbol6219"
             x="128.44604"
             y="93.683998"
             id="use8239"
             width="100%"
             height="100%"
             style="stroke-width:1.90594" />
        </g>
        <g
           style="fill:#000000;fill-opacity:1;stroke-width:1.90594"
           id="g1779">
          <use
             xlink:href="#symbol1512"
             x="134.136"
             y="90.805"
             id="use7056"
             width="100%"
             height="100%"
             style="stroke-width:1.90594" />
        </g>
      </g>
    </g>
  </g>
</svg>
